<svg width="116" height="13" viewBox="0 0 116 13" fill="none" xmlns="http://www.w3.org/2000/svg">
<path d="M11.6211 1.6875V1.66992C11.6211 1.66992 11.6289 1.67578 11.6445 1.6875H11.6211ZM4.02734 0.503906H4.5957C4.64258 0.796875 4.66602 1.13086 4.66602 1.50586C4.66602 1.88086 4.65039 2.32031 4.61914 2.82422C4.58789 3.32812 4.57031 3.64648 4.56641 3.7793L6.99805 0.708984L7.37891 0.263672C8.73828 0.751953 10.1523 1.22461 11.6211 1.68164V1.72266C11.1523 2.22266 10.584 2.80664 9.91602 3.47461C9.24805 4.14258 8.80664 4.58594 8.5918 4.80469L12.4355 7.81641L9.18359 9.1582L8.5625 9.47461L7.54883 8.64258C7.04102 8.2168 6.46289 7.71094 5.81445 7.125C5.16992 6.53906 4.73242 6.125 4.50195 5.88281L4.4082 8.55469V8.96484C2.37695 9.02734 0.9375 9.05859 0.0898438 9.05859C0.0664062 8.72266 0.0546875 8.45508 0.0546875 8.25586C0.0546875 8.25586 0.09375 6.96289 0.171875 4.37695C0.253906 2.62305 0.294922 1.60547 0.294922 1.32422C0.294922 1.04297 0.306641 0.8125 0.330078 0.632812C0.505859 0.609375 1.04688 0.582031 1.95312 0.550781C2.85938 0.519531 3.55078 0.503906 4.02734 0.503906ZM16.8828 6.0293C16.8828 7.05273 17.3027 7.56445 18.1426 7.56445C18.5957 7.56836 18.9395 7.41797 19.1738 7.11328C19.3457 6.88672 19.457 6.66211 19.5078 6.43945C19.6328 5.89648 19.6953 5.0957 19.6953 4.03711V3.09961C20.1836 3.08398 21.2949 3.05664 23.0293 3.01758C23.0371 3.22461 23.041 3.38281 23.041 3.49219L22.748 8.82422L20.9023 9.09961C20.6445 8.58398 20.457 8.17969 20.3398 7.88672C19.9531 8.32422 19.4648 8.65625 18.875 8.88281C18.2891 9.10547 17.6758 9.2168 17.0352 9.2168C15.6328 9.21289 14.5938 8.86328 13.918 8.16797C13.543 7.78125 13.3555 7.26367 13.3555 6.61523C13.3555 5.96289 13.377 5.27148 13.4199 4.54102C13.4629 3.81055 13.4863 3.35547 13.4902 3.17578C13.627 3.16406 13.9922 3.14844 14.5859 3.12891C15.1797 3.10938 15.6094 3.0918 15.875 3.07617L17.0234 3.00586C16.9297 4.80664 16.8828 5.81445 16.8828 6.0293ZM36.1484 6.07617C36.1484 5.09961 35.8125 4.61133 35.1406 4.61133C34.7773 4.61133 34.5215 4.70312 34.373 4.88672C34.0762 5.24609 33.9277 5.98633 33.9277 7.10742V8.94727L30.4297 9.05273V8.57812L30.4883 5.90039C30.4883 5.36133 30.4043 4.99219 30.2363 4.79297C30.0723 4.58984 29.8008 4.48828 29.4219 4.48828C29.0391 4.48828 28.7617 4.62109 28.5898 4.88672C28.3516 5.24609 28.2344 5.94922 28.2383 6.99609L28.25 9.05273L24.6699 9.06445L24.7051 8.45508C24.7441 7.45898 24.7793 6.33789 24.8105 5.0918C24.8418 3.8457 24.8574 3.21875 24.8574 3.21094L26.7617 2.9707L27.3887 4.17773C28.041 3.21289 29.1016 2.73047 30.5703 2.73047C31.2188 2.73047 31.7441 2.83203 32.1465 3.03516C32.5527 3.23828 32.916 3.56445 33.2363 4.01367C33.9277 3.1582 34.9746 2.73047 36.377 2.73047C37.4473 2.73047 38.2754 3.01367 38.8613 3.58008C39.4473 4.14258 39.7402 4.89453 39.7402 5.83594L39.6348 9.00586L36.1484 9.06445V6.07617ZM47.6504 7.86914C47.4043 8.26758 47.0449 8.5918 46.5723 8.8418C46.0996 9.0918 45.5781 9.2168 45.0078 9.2168C44.4375 9.2168 43.9395 9.15625 43.5137 9.03516C43.0879 8.91797 42.6934 8.74219 42.3301 8.50781C41.9707 8.27344 41.6816 7.95703 41.4629 7.55859C41.2441 7.16016 41.1348 6.69727 41.1348 6.16992C41.1348 5.63867 41.2324 5.15039 41.4277 4.70508C41.627 4.25586 41.8945 3.89062 42.2305 3.60938C42.918 3.02344 43.7559 2.73047 44.7441 2.73047C45.4277 2.73047 45.9863 2.81641 46.4199 2.98828C46.8535 3.16016 47.2363 3.46875 47.5684 3.91406L47.5801 2.66602L50.2285 2.88867L50.2109 8.85938L48.0078 9.02344L47.6504 7.86914ZM44.9082 5.14453C44.6816 5.40625 44.5684 5.7207 44.5684 6.08789C44.5684 6.45117 44.6797 6.76758 44.9023 7.03711C45.125 7.30273 45.4434 7.43555 45.8574 7.43555C46.2715 7.43555 46.5918 7.31836 46.8184 7.08398C47.0488 6.8457 47.1641 6.51953 47.1641 6.10547C47.1641 5.69141 47.0488 5.36133 46.8184 5.11523C46.5879 4.86914 46.2676 4.74609 45.8574 4.74609C45.4512 4.74609 45.1348 4.87891 44.9082 5.14453ZM59.2168 8.74219C58.8379 8.89062 58.3672 9.00586 57.8047 9.08789C57.2461 9.16992 56.7207 9.21094 56.2285 9.21094C55.7402 9.21094 55.2793 9.1543 54.8457 9.04102C53.4668 8.68945 52.7773 7.85742 52.7773 6.54492C52.7773 6.52148 52.7773 6.5 52.7773 6.48047V6.41016C52.7891 6.29688 52.8008 5.98438 52.8125 5.47266C52.8242 4.95703 52.834 4.67383 52.8418 4.62305H52.2441C51.9043 4.62305 51.6738 4.60547 51.5527 4.57031L51.916 3.22852H52.9824C53.0371 2.81836 53.0781 2.35547 53.1055 1.83984C53.1367 1.32422 53.1602 1 53.1758 0.867188C54.6172 0.734375 55.7578 0.667969 56.5977 0.667969C56.6211 0.667969 56.6445 0.667969 56.668 0.667969C56.6719 0.730469 56.6738 0.792969 56.6738 0.855469L56.5625 3.24609H58.8418C59.0254 3.24609 59.1973 3.26953 59.3574 3.31641L59.0469 4.56445C58.9258 4.60352 58.7148 4.62305 58.4141 4.62305H56.4512L56.3926 6.32812C56.3926 6.70312 56.4844 6.96484 56.668 7.11328C56.8555 7.26172 57.127 7.33594 57.4824 7.33594C57.8418 7.33594 58.3496 7.24219 59.0059 7.05469C59.1348 7.01562 59.209 6.99414 59.2285 6.99023C59.2402 7.10352 59.2461 7.37305 59.2461 7.79883C59.2461 8.22461 59.2363 8.53906 59.2168 8.74219ZM67.2441 7.86914C66.998 8.26758 66.6387 8.5918 66.166 8.8418C65.6934 9.0918 65.1719 9.2168 64.6016 9.2168C64.0312 9.2168 63.5332 9.15625 63.1074 9.03516C62.6816 8.91797 62.2871 8.74219 61.9238 8.50781C61.5645 8.27344 61.2754 7.95703 61.0566 7.55859C60.8379 7.16016 60.7285 6.69727 60.7285 6.16992C60.7285 5.63867 60.8262 5.15039 61.0215 4.70508C61.2207 4.25586 61.4883 3.89062 61.8242 3.60938C62.5117 3.02344 63.3496 2.73047 64.3379 2.73047C65.0215 2.73047 65.5801 2.81641 66.0137 2.98828C66.4473 3.16016 66.8301 3.46875 67.1621 3.91406L67.1738 2.66602L69.8223 2.88867L69.8047 8.85938L67.6016 9.02344L67.2441 7.86914ZM64.502 5.14453C64.2754 5.40625 64.1621 5.7207 64.1621 6.08789C64.1621 6.45117 64.2734 6.76758 64.4961 7.03711C64.7188 7.30273 65.0371 7.43555 65.4512 7.43555C65.8652 7.43555 66.1855 7.31836 66.4121 7.08398C66.6426 6.8457 66.7578 6.51953 66.7578 6.10547C66.7578 5.69141 66.6426 5.36133 66.4121 5.11523C66.1816 4.86914 65.8613 4.74609 65.4512 4.74609C65.0449 4.74609 64.7285 4.87891 64.502 5.14453ZM71.457 3.80273C72.1875 3.77539 74.2109 3.7207 77.5273 3.63867V3.83789C77.5273 3.93555 77.5 4.26172 77.4453 4.81641C77.3906 5.37109 77.3477 5.71484 77.3164 5.84766C74.8945 5.89453 73.1191 5.91797 71.9902 5.91797H71.0879L71.457 3.80273ZM82.4844 0.574219L82.4727 1.14258C82.4727 1.31055 82.4551 1.71484 82.4199 2.35547C82.3887 2.99609 82.3711 3.36914 82.3672 3.47461C82.6914 3.25195 83.0703 3.07227 83.5039 2.93555C83.9414 2.79883 84.3711 2.73047 84.793 2.73047C86.0781 2.73047 87.0879 3.125 87.8223 3.91406C88.3105 4.44141 88.5547 5.10547 88.5547 5.90625C88.5547 6.35156 88.4434 6.7793 88.2207 7.18945C88.002 7.59961 87.709 7.95312 87.3418 8.25C86.9785 8.54297 86.5469 8.77734 86.0469 8.95312C85.5508 9.12891 85.002 9.2168 84.4004 9.2168C83.7988 9.2168 83.207 9.10156 82.625 8.87109C82.043 8.64062 81.5781 8.3125 81.2305 7.88672V7.86328C81.2148 7.91016 81.1094 8.08594 80.9141 8.39062C80.7188 8.69531 80.6074 8.85352 80.5801 8.86523C80.5566 8.87695 80.3418 8.91602 79.9355 8.98242C79.5293 9.04883 79.2715 9.08203 79.1621 9.08203C79.0527 9.08203 78.9512 9.04297 78.8574 8.96484L79.168 1.56445V0.779297C80.5156 0.599609 81.3555 0.509766 81.6875 0.509766C82.0234 0.509766 82.2891 0.53125 82.4844 0.574219ZM83.6211 7.51172C84.0625 7.51172 84.4121 7.36328 84.6699 7.06641C84.9277 6.76953 85.0566 6.42383 85.0566 6.0293C85.0566 5.63086 84.9316 5.29102 84.6816 5.00977C84.4355 4.72461 84.0898 4.58203 83.6445 4.58203C83.3477 4.58203 83.0898 4.65625 82.8711 4.80469C82.457 5.08594 82.25 5.50195 82.25 6.05273C82.25 6.44727 82.3691 6.78906 82.6074 7.07812C82.8457 7.36719 83.1836 7.51172 83.6211 7.51172ZM90.3535 0.574219L93.8164 0.410156C93.7539 1.71484 93.6895 3.29883 93.623 5.16211C93.5605 7.02148 93.5156 8.30273 93.4883 9.00586L90.0664 9.09961L90.2422 3.5625C90.3164 1.79297 90.3535 0.796875 90.3535 0.574219ZM99.7344 7.61719C100.199 7.61719 100.551 7.46289 100.789 7.1543C101.031 6.8457 101.152 6.45898 101.152 5.99414C101.152 5.5293 101.023 5.16016 100.766 4.88672C100.512 4.60938 100.16 4.4707 99.7109 4.4707C99.2617 4.4707 98.9219 4.63086 98.6914 4.95117C98.4648 5.26758 98.3516 5.64062 98.3516 6.07031C98.3516 7.10156 98.8125 7.61719 99.7344 7.61719ZM95.1055 6.11719C95.1055 3.85938 96.75 2.73047 100.039 2.73047C101.266 2.73047 102.281 3.00781 103.086 3.5625C103.477 3.82812 103.779 4.16211 103.994 4.56445C104.213 4.9668 104.322 5.39258 104.322 5.8418C104.322 7.01758 103.926 7.875 103.133 8.41406C102.344 8.94922 101.18 9.2168 99.6406 9.2168C96.6172 9.2168 95.1055 8.18359 95.1055 6.11719ZM106.9 11.7891L107.211 9.98438H107.486C108.1 10.1797 108.635 10.2773 109.092 10.2773C109.553 10.2773 109.914 10.248 110.176 10.1895C111.125 9.97852 111.627 9.4375 111.682 8.56641C111.084 8.89453 110.377 9.05859 109.561 9.05859C108.748 9.05859 108.004 8.89648 107.328 8.57227C106.656 8.24805 106.184 7.78516 105.91 7.18359C105.762 6.85547 105.689 6.50195 105.693 6.12305C105.693 5.50977 105.867 4.94336 106.215 4.42383C106.566 3.90039 107.045 3.48828 107.65 3.1875C108.26 2.88281 108.926 2.73047 109.648 2.73047C110.582 2.73047 111.412 2.97656 112.139 3.46875L112.197 2.86523L115.326 3.11133L115.004 8.88867C114.984 9.30273 114.863 9.69141 114.641 10.0547C114.23 10.7266 113.541 11.2598 112.572 11.6543C111.604 12.0488 110.598 12.2461 109.555 12.2461C108.516 12.2461 107.631 12.0938 106.9 11.7891ZM110.521 4.54688C110.08 4.54688 109.732 4.70117 109.479 5.00977C109.229 5.31836 109.104 5.67188 109.104 6.07031C109.104 6.46484 109.213 6.79883 109.432 7.07227C109.646 7.3457 109.918 7.48242 110.246 7.48242C110.84 7.48242 111.256 7.33398 111.494 7.03711C111.736 6.74023 111.857 6.39453 111.857 6C111.857 5.60156 111.744 5.25977 111.518 4.97461C111.295 4.68945 110.963 4.54688 110.521 4.54688Z" fill="black"/>
</svg>
